<svg version="1.2" xmlns="http://www.w3.org/2000/svg" viewBox="0 0 783 627" width="783" height="627"><style>.a{fill:#0d1316}.b{fill:#d9ad25}.c{fill:#171b1d}.d{fill:#7e6a29}.e{fill:#0d1317}.f{fill:#e6e9e9}.g{fill:#e9ce27}.h{fill:#dadcd7}.i{fill:#101418}.j{fill:#f2d527}.k{fill:#f7dd2a}.l{fill:#efd425}.m{fill:#e1c427}.n{fill:#eace26}.o{fill:#13181b}.p{fill:#252627}.q{fill:#2e3132}.r{fill:#8a8b8e}</style><path fill-rule="evenodd" class="a" d="m782.5 543.5q0 7 0 14-10.3 43.5-51 62.5-31.5 11.2-60-6-24.5-20.9-23.5-53.5-0.5-36-1-72-1.7-17.2-17.5-23.5-17.9-2-36-1.5-0.3 57 0.5 114 0.5 14.6 14.5 18 3.2 1.5 7 1 0.5-3.8-1-7-9.3-3.3-11-13 1.5-49.7 1-100 3 0 6 0-0.3 47 0.5 94 0.6 4.1 2 8 0.7-0.9 0.5-2 2.1 2.7 3.5 6 3.6 2.7 7.5 5 1.7 13.5 0.5 27-0.8 2.7-3.5 3.5-22.5 1-45 0-9.6-2.3-19-5.5-9.8 3.5-20 5.5-20.5 1-41 0-2.6-1.5-3.5-4.5-1-12.5 0-25 1-1.3 2.5-2 12.1 11.9 23.5 0 1.4-3.9 2-8 1.5-53.6-1-107-0.6-6-6.5-7.5-14.5-0.3-29-1.5-2-7.8 0-15.5 8.9-0.5 18.5 0.5 8.3-0.1 16.5-1.5 3.2-3.1 3.5-7.5 1-73 0-146-1-12.5-9.5-21.5-5.4-4-12-5-8.5-0.5-17-1-0.8-0.8-1.5-1.5-2.3-7.3-1-15 0.7-2.1 2.5-3.5 98.5-1 197 0 39.1 2.9 66.5 30.5 34.9 47.4 15 103-21.1 45.6-71.5 50.5 27.9 10.5 35.5 39.5 3 15.1 2.5 30.5-0.9 31.5-3 63-0.7 10.9 4.5 20.5 5.6 6.5 12.5 1.5 11.5-14.9 5.5-32.5-4.6-2.7-9.5-5-6.3-9.2-2.5-20 6.5-9.9 18.5-9 12.7-1 20.5 9 4.3 8.3 6.5 17zm-189-139q27 0.4 54-1.5 29.1-3.1 41.5-29.5 14.9-37.5 0-75-11-26.5-39.5-28.5-28-0.8-56-0.5 0 67.5 0 135zm0 43q21.6-0.6 43 1.5 6.4 2.2 12 6 13.6 13.4 15.5 32.5 1.4 44 3 88 2.6 19 18.5 29.5 27.8 14 54-3-44 12-52.5-32.5-0.1-39.6-3-79-1.9-13.9-7-27-9.4-23.9-33.5-32.5-25.5-5.3-51-2.5 1.5 9.2 1 19zm-77 157.5q0.5 0.5 1 1 16.4 1.8 31-6 7.5-1 15 0 17.7 8.2 37 6-19.2-1-26.5-18.5-1.9-62.5-2-125-10.5 2.5-16 12-3.6-7.8-11.5-11-1.5 0-3 0 0.5 59.8-1 119-1.2 22.4-24 22.5zm231-72q6.2 2.7 9.5 8.5 2.3 10.4 1 21-4.2 15.4-10 30 19.7-17.1 21.5-43.5-0.6-7.1-3.5-13.5-5-6.9-13.5-6-2.2 2-5 3.5z"/><path fill-rule="evenodd" class="b" d="m339.5 179.5q-13.9 3.2-25 12-1.5 0.8-0.5 2 15.9 12.1 33.5 21.5 44.3 17.4 81 47 12.8 13.3 24.5 27.5 11.5 18.5 23 37 3.2 5.9 5.5 12-10.4 2.6-21 1.5-2.7-0.4-4.5-2.5 14.6 50 43.5 93.5-5.3 0.1-10-3-20-14.4-32.5-35.5-7.6-14.7-16-29 8 23.5 17 47 3 8.9 4 18-27.7-20.3-41-52 1.9 17.4 6.5 34.5-0.3 1.3-0.5 2.5-18.6-18.2-30-42-2.4-7.9-4-16-1.2 4.2-2.5 8-1.3-0.8-1.5 2-2.4 11.4-4 23-5.6-8.4-10.5-17-3.9-5.8-5-13 0.2-8-0.5-16-1.1 0.8-1.5 2-4.6 17.8-11 35-14-19.7-11.5-44-10.8 17.4-17 37-8.5-12.9-7.5-28.5 0.3-5.3 0.5-10.5 2.1-7.2 4-14-14.7 20.8-25.5 44-1.7-3.8-2.5-8-1-10 0-20 3-11.9 7-23-15.6 16.8-31.5 33-1-13.3 3.5-26 5.3-9.2 10-18-17 11.4-37.5 14 0.2-3.4 2.5-6 8.4-9.6 16.5-19.5-9.9 5.4-21 9.5-1.2-1-3-1-7.4 2.4-15 1.5 10-10 20-20-0.9-0.7-2-0.5-13.2 4.2-27 5-8.5 0.2-16-4 10.6-6.4 20-14.5-20 0.6-37-9.5 8-2.2 16-4.5 5.2-2 8-4.5-1.3-6.7 3-12.5-1-0.5-2-1 4-0.9 2-4 1.1-4.6 3.5-0.5 1.5-1.5 3-3 1 2 0 4-0.5-0.5-1-1-2 2.8-1 6 1.1-2.6 3.5-2.5 0 3.3-1.5 6.5 2.3-2.3 4.5-4.5-0.4-1.9-2-3 2.1-4.2 4.5-0.5 2.8-1.8 5.5 0.5-1.7 1.4 0.5 2.5 2.4-1.6 0.5-3.5 4.4-0.4 6-4.5 3.4 6 6.5 1-0.1 1.9 0.5 3 2.8-3.6 7-3.5-3.6 2.6 1 4.5 1.1-1.3 1.5-3 0.5 2 1 4 5.3-3.8 7.5-8.5-1.9-0.7-4-0.5 0.3 2.4-1.5 4-1.5-0.7-3.5-0.5 1.8-1.2 3-3-2.7-7.3 2-3-0.5 0.5-1 1 2.4 1.1 4.5-0.5 9 3.5-0.5 4 1.3 2.2 3 5.5-0.6 1.4-2 2 2.3 1.2 3.5 3.5 0.5-1.8-0.5-3.5 1.6-2.1 2.5-4.5 2.6-1.1 5.5-1.5-1.8-1 0-1.5 1.1 1.7 2 3.5-1 1.6-1.5 3.5-1.1-0.9-2.5-1.5 1.7-1.4-0.5-2.5-1.1 0.9-2.5 1.5 3.3 1 1 3.5 6.3 9 12.5 1 1 1 2 2 4.2-2.5 6 2 2.6-3.4 0-7-0.5 1.5-1 3-0.3-1-0.5-2 2-3.2 4.5-6 2.9 3.8 6 0 0.7 1.4 0.5 3 3-0.4 5.5 1 0.8-0.8 1.5-1.5-2-2.5 0-5-2.7-1-4-3.5-3.9 2.2-7-1 1.3-1.1 3-1.5-3.9-3.4 0.5-6.5 1 1 2 2 7.1-5.9 12.5 2-0.3 0.9-1 1.5 3.6 3 5 6-1 1-2 2 1.2 3.3-3 4 0.8 0.8 1.5 1.5 4.5-2.3 5.5 3-1.8 3.2-4.5 0-0.5 1.9 1.5 3-2.4 3.3-4 7-1.6-1.3 0-3-1.3-1.6-3-0.5 0.5 0.5 1 1-2-0.2-3.5 0.5-0.7-2.4-2.5-4 0.8-3.3-3-5-3.2 3.3-4.5-2-0.8 3.6-2 7-1.1 1.7-2.5 0-6.1 6.5 1.5 4 1.9 2.1 1.5 5 3.8 0.3 6.5 1 1.7-1.9 0.5-3.5 2.2-0.9 3 1.5-8.1 7.9 4 6.5-1.8-1 0-1.5 1.6 1.8 4 2.5-0.5 0.5-1 1 1.9 2 1.5 4.5-2.6-3.2-5.5 0.5 1.8 3.1 2.5-0.5 1.5 2 3 4 3.5 0.1 5-4 0.5 2.6 1.5 5-0.9 3-3 1-1 1-2 2-2.4-1.7-5-1.5 1.7 1.5-1 2 2 1.8 3 4.5 1.6-1.3 0-3 2.9-1 5.5-1 1 1 2 2 4.6-2.3 8.5-7.5-2.9-0.2-5.5 1.5-0.4-3.7 2.5-6.5-2.5-3.1-5-1 3.6 1.6-1 1.5-0.3-2 1-3.5 3.9-2.2 6.5 0.5 2.4-0.7 3.5-3 3 3.4 1-1.5 2-1 4 0-1 0.5-2 1 4.9 3.9 9 0-1.3-1.5-1-3.5 2 1 4 2-0.3-1.8 1-3-0.8 1.9 2 3 1.4-1.2 2-3-2-2 0-4-1.3-1.6-3 0-1.8-1.2 0-2.5 2.2 0.5 4-0.5 2 2.3 4.5 4 1.1-2.7 4.5-3 0.2-2.8-1.5-6-0.6 2.2-2.5 1.5 0.8-2.3 1.5-5.5-0.5 1-1 2-1.2-2-3.5-2.5 6.1 0 10-2.5 0.3-2-1-3.5-7.4-3-14.5-6.5-0.4 2.4-1.5 4.5 5.8 0.9 0 2.5-1.3-1.2-1-3-3.7-0.6-2 2-2.4 1.4-5 2.5 2 1 0 2-1.4 0.7-3 0.5 0.3-2.4-1.5-4-3.2 4.4-7.5 2.5 1.5-0.5 3-1-3.2-0.4-5-3 0.2-2.6 2-0.5 5.2-3.7 1-8.5 1-0.5 2-1-2-1.5 0-3-2.3-0.9-4-2.5 1.1-0.6 3-0.5-9.1-5.7-17.5-12.5-1.2-5.1-3-10-1.4 1.2-2 3-0.9-3.3-3.5-0.5 3.7 2.4 0.5 5.5-0.7-3.1-2.5-5.5 0.4-1.9 2-3-0.5-0.5-1-1 2.2-2.1 4.5-0.5 0.9-3.9 4-2 0.8-3.1-1.5-5.5 2.6-0.5 4 2-2 4.9 1 1.5 4.7 1 1 3 3.3 1.1 6 3 8.1-5.4 17-5z"/><path fill-rule="evenodd" class="c" d="m602.5 281.5q27.5-0.3 55 0.5 15.2 1.5 26.5 11.5 1 2.5 0 5-8.9-7.3-20.5-8.5-25.5-0.8-51-0.5 0 51.5 0 103-5 0-10 0 0-55.5 0-111z"/><path fill-rule="evenodd" class="d" d="m369.5 358.5q-1-7-2-14 0.4-1.2 1.5-2 0.7 8 0.5 16z"/><path fill-rule="evenodd" class="e" d="m210.5 247.5q-2.8 2.5-8 4.5-8 2.3-16 4.5 17 10.1 37 9.5-9.4 8.1-20 14.5 7.5 4.2 16 4 13.8-0.8 27-5-10.2 10.9-21 21.5 10.7 1.1 21-1.5 11.1-4.1 21-9.5-8.1 9.9-16.5 19.5-2.3 2.6-2.5 6 20.5-2.6 37.5-14-4.7 8.8-10 18-4.5 12.7-3.5 26 15.9-16.2 31.5-33-4 11.1-7 23-1 10 0 20 0.8 4.2 2.5 8 10.8-23.2 25.5-44-1.9 6.8-4 14-0.3 5.3-0.5 10.5-1 15.6 7.5 28.5 6.2-19.6 17-37-2.5 24.3 11.5 44 6.4-17.2 11-35 1 7 2 14 1.1 7.2 5 13 0.9 4.8 3.5 9 2.9 5.7 7.5 10 1.4-6.7 3-13-0.2 1.6 0.5 3 0.5-3.2 2-6 0.5 4.6 2 1 0.7 3 0.5 6 1.9-0.4 3 1-2.4-0.2-3.5 2-1 3.5 0 7 27.1 36.4-7.5 66.5-9.1 6.6-19 12 24.8 28.8 49.5 57.5 16.2-16.9 20.5-40-2.6-12.8-16-13 0-4 0-8 27.4-0.5 54.5 1 1 2.5 0 5-10.8 4.8-18 14-10.8 17.5-20 36-5.2 8.7-11.5 16.5 10.5 13.5 23 25 10.4 6.9 23 6.5 1.5 7.4 1 15-24 0.5-48-1-9-11-19-21-38.1 36.9-89 22.5-45.7-21.2-31.5-69.5 15-30.5 46.5-43.5-23.7-24.1-18.5-57.5 8.1-24.3 31.5-35 0.8-10-4.5-19-3.3 7.4-6 15-8.1 5.8-14-3-4.9-9.6-7-20-4.3 7.5-8.5 15-10.7 5.2-13.5-7-1.8-10.4-2-21-7.2 5.7-13.5 12.5-4.4 2.7-8.5-0.5-1.9-4.3-2.5-9 0.4-12.7 5-24.5-9.4 2-19 3.5-0.3 54 0.5 108 0.7 3 2.5 5.5 6.8 2.8 14 4 9.3 15.1-4 27-6.7 3-14 2.5-1.5 32.9-12 64-3.2-1.3-5.5 2-1.1-1.4-2.5-0.5 2 1.5 0 3 1.5 1.8 3 1.5-0.9 1.9-1.5 4-0.9-3.7-2.5 0-2.2-1.7-3 1.5 0.2 1.9 1 4-1.5 3-3 0 2-2.8-0.5-1.5-0.7-2.1-2.5-3.5 3.6-1.6-1-1.5 0.7-5.9 3-11.5 1.4-2.2 4-3-0.7-0.6-1-1.5 2.7-1.8 3-5-1.9-5.8-2-11 2-16.5 3.5-33 4.3-5.9 7.5-12.5-2.5-5-7-2-4.3 11.5-16 13.5-12.6-1.3-17-13.5-3.6-0.5-5 3 2.2 5.6 5.5 10.5 4.9 46-23.5 83-2.5-0.6-5-1.5 0.2-1.9 1-4-0.8-0.3-1.5-0.5-3.2 0.8-2.5 3-1.4-1.2-3-0.5 1 2.2-1 4.5-0.4-2.6 0-6 22.1-36.9 19-80-15.3 3.8-25.5-8-5.8-11.6 2.5-21.5 6.7-1.4 13-4 3.4-4.7 3.5-10.5 1-68-1-136-3.7-16.2-20.5-15.5-10.2 16.4-24 30-10.1 6.7-12-5.5-1 0.5-2 1-2.4-0.7-3.5-3-3 3.7-3.5 7.5-4 0.7-8 0.5 17-15.7 32.5-33-3.9 12.2-6 25 4.9-6.5 11-12 13.9-23.9 32.5-44.5 19.9 2.2 40 2.5zm130 173q2.1 21.2 17 36 22.9-12.4 27-38-2.9-24.9-28-23-15.2 7.7-16 25zm-15.5 80q-11.1 13.2-11.5 30.5 1.2 28.4 28 38 31.8 5.6 54-18-27.9-32.6-56-64.5-7.4 6.7-14.5 14z"/><path fill-rule="evenodd" class="f" d="m366.5 372.5q2.4 0.4 3 3-2 2-4 0 0.9-1.4 1-3z"/><path fill-rule="evenodd" class="g" d="m390.5 363.5q-1.2 7-2 14-1.6 6.3-3 13-4.6-4.3-7.5-10-2.6-4.2-3.5-9 4.9 8.6 10.5 17 1.6-11.6 4-23 0.2-2.8 1.5-2z"/><path fill-rule="evenodd" class="h" d="m394.5 383.5q2 1 0 0z"/><path fill-rule="evenodd" class="i" d="m12.5-0.5q2.5 0 5 0 34.3 20 73 30.5 24.8 6.9 50 12 64.6 10.6 128 27 21.3 5.8 37.5 20.5 8.9 13.9 0 28-10.8 10.8-21.5 21.5 0.5 0.5 1 1 7.1 0.9 14-1 16.3-6.9 33-13 30.7-6.3 46.5 20.5 3.3 3.8 7.5 6.5 12.6 4.7 25 10 5.9 2.4 9 8-1.5 3.5-5 5-20.6 0.2-41 2-18.2 5.7-37 9-6.7 2.6-13 6 8.2 5.9 17 11 27.7 13.1 55 27 33.2 18.8 57.5 48.5 17.1 25.6 33 52 4.8 12.2-8.5 14.5-6 1.3-12 2 4.2 15.1 10.5 29.5 14.3 28.9 30.5 56.5 0.1 2.6-2 4-16.3 1.6-28-10-4.8-4.8-9.5-9.5 5.6 27.8-17.5 10.5-7.3-7.5-15-14.5-1.5 11-12 5.5-18.1-15.5-27-37.5-1.1-1.4-3-1 0.2-3-0.5-6-1.5 3.6-2-1-1.5 2.8-2 6-0.7-1.4-0.5-3 0.8-7 2-14 1.3-3.8 2.5-8 1.6 8.1 4 16 11.4 23.8 30 42 0.3-1.3 0.5-2.5-4.6-17.1-6.5-34.5 13.3 31.7 41 52-1-9.1-4-18-9-23.5-17-47 8.4 14.3 16 29 12.5 21.1 32.5 35.5 4.7 3.1 10 3-28.9-43.5-43.5-93.5 1.8 2.1 4.5 2.5 10.6 1.1 21-1.5-2.3-6.1-5.5-12-11.5-18.5-23-37-11.7-14.2-24.5-27.5-36.7-29.6-81-47-17.6-9.4-33.5-21.5-1-1.2 0.5-2 11.1-8.8 25-12 20.8-5.7 42-9.5 14.5-0.5 29 0-14.6-5.7-29-12-7.7-5.1-11.5-13.5-15.6-17.9-38.5-11.5-10.4 3.7-20 9-12.9 6-27 5-8.4-3.5-5.5-12.5 11.1-11.1 22-22 6.5-13-4.5-22.5-28.3-16.6-61-22-51.5-9.5-103-19-41.4-8.5-81-23-15.8-6.3-30.5-14.5 12.1 18.6 31.5 30.5 24.6 13.8 52 21-26.7 3.7-53-2.5-1.5 0.3-3 0.5 15.3 14.6 36 20 22.1 6.4 45 8-19 4.3-38 5.5-7.2-0.6-14 1.5 15.4 10.4 34 11.5 13.2 2.2 27 2.5-16.9 5.2-34 9.5 10 4.4 21 5.5 14.5 1.5 29 2-14.8 4.1-29 10 8.1 3.7 17 5 13.5 0.5 27 1-13.7 4.7-27 10 16.1 4.8 33 6-8.2 2.8-16 6.5 3.8 3.7 9 5-22.7 14.6-49 19-19.5 0.3-39-0.5-19.6-2.7 0 4.5 3.6 2.1 8 2.5-0.8 0.6-1 1.5-19-0.2-38-0.5 6.9 3.2 14 5.5 8.4 3.9 18 4.5-26.4 4.5-53 8 17.5 8.4 37 8-22.7 8.4-46 15 3.3 1.6 7 2 15.6 0.9 31 0-13.4 8.4-26 17.5-7.1 2.8-14 6.5 10.5 0.7 21 0.5 11.8-2.1 23-5.5-15.4 11.9-30 25 11.3-0.6 22-5 10.5-5 21-9-14.6 14.6-27 31 10.1-1.3 19-7 11.9-6.8 22.5-15.5-9 14.5-17.5 30 0.3 0.5 0.5 1 17.8-10.3 33-24-4.5 12.9-9.5 26 0.3 0.5 0.5 1 1.7-2.5 4.5-3 4 0.2 8-0.5 0.5-3.8 3.5-7.5 1.1 2.3 3.5 3-5.7 7-13 12.5-17.2 11.5-15-8.5-9.2 6.6-20 10-7-2.7-4.5-10 2-2.9 2-6-10.6 7.4-23.5 5.5-2.8-4.4-1.5-9.5 2.4-4.3 5.5-8-0.5-0.5-1-1-9.3 2.9-19 1.5-5-4-1.5-9.5 4.3-4.3 8.5-8.5-9.6-0.3-19-2-10-4.8-2-12 9.5-4.7 18-11-8.1-1.2-16-3-11.3-5.7-1-13 10.4-2.6 20-7-7.5-2.4-13.5-7.5-3-7 4.5-9.5 12-1.6 24-3-5.1-2.9-8.5-7.5-1.6-4.7 2.5-7.5 9.1-0.8 18 0 0.5-0.5 1-1-4.3-4.6 1-8 20 0.4 40 2.5 20.1 0.3 39-6.5 6-2.5 11-6.5-3-2.9-1-6.5-9.6-1.7-17.5-7.5-1.4-4.3 1.5-7.5-9.3-2.3-17.5-7.5-3.6-5.9 2.5-9.5-11.7-1.4-22-7-6-5.9 1-11-16-3.3-28.5-13.5-6.9-10.5 5.5-13.5-20.1-7.1-35.5-21.5-9.6-16.5 9.5-15.5-24.6-13.6-39.5-37.5-3.6-7.5 2.5-13z"/><path fill-rule="evenodd" class="j" d="m246.5 279.5q1.1-0.2 2 0.5-10 10-20 20 7.6 0.9 15-1.5 1.8 0 3 1-10.3 2.6-21 1.5 10.8-10.6 21-21.5z"/><path fill-rule="evenodd" class="k" d="m31.5 257.5q-3.6 3.1-8 5.5 7.8 0.3 15 1.5-10.5 0.2-21-0.5 6.9-3.7 14-6.5z"/><path fill-rule="evenodd" class="l" d="m87.5 197.5q-13.9 1.3-30 1.5 4.4 1.2 6 3.5-7.1-2.3-14-5.5 19 0.3 38 0.5z"/><path fill-rule="evenodd" class="b" d="m339.5 179.5q-8.9-0.4-17 5-2.7-1.9-6-3 3.7-2-1-3-3 3.4-1-1.5-1.4-2.5-4-2 2.3 2.4 1.5 5.5-3.1-1.9-4 2-2.3-1.6-4.5 0.5 0.5 0.5 1 1-1.6 1.1-2 3 1.8 2.4 2.5 5.5 3.2-3.1-0.5-5.5 2.6-2.8 3.5 0.5 0.6-1.8 2-3 1.8 4.9 3 10 8.4 6.8 17.5 12.5-1.9-0.1-3 0.5 1.7 1.6 4 2.5-2 1.5 0 3-1 0.5-2 1 4.2 4.8-1 8.5-1.8-2.1-2 0.5 1.8 2.6 5 3-1.5 0.5-3 1 4.3 1.9 7.5-2.5 1.8 1.6 1.5 4 1.6 0.2 3-0.5 2-1 0-2 2.6-1.1 5-2.5-1.7-2.6 2-2-0.3 1.8 1 3 5.8-1.6 0-2.5 1.1-2.1 1.5-4.5 7.1 3.5 14.5 6.5 1.3 1.5 1 3.5-3.9 2.5-10 2.5 2.3 0.5 3.5 2.5 0.5-1 1-2-0.7 3.2-1.5 5.5 1.9 0.7 2.5-1.5 1.7 3.2 1.5 6-3.4 0.3-4.5 3-2.5-1.7-4.5-4-1.8 1-4 0.5-1.8 1.3 0 2.5 1.7-1.6 3 0-2 2 0 4-0.6 1.8-2 3-2.8-1.1-2-3-1.3 1.2-1 3-2-1-4-2-0.3 2 1 3.5-4.1 3.9-9 0 1-0.5 2-1-2-1-4 0 2 4.9-1 1.5-1.1 2.3-3.5 3-2.6-2.7-6.5-0.5-1.3 1.5-1 3.5 4.6 0.1 1-1.5 2.5-2.1 5 1-2.9 2.8-2.5 6.5 2.6-1.7 5.5-1.5-3.9 5.2-8.5 7.5-1-1-2-2-2.6 0-5.5 1 1.6 1.7 0 3-1-2.7-3-4.5 2.7-0.5 1-2 2.6-0.2 5 1.5 1-1 2-2 2.1 2 3-1-1-2.4-1.5-5-1.5 4.1-5 4-1.5-2-3-4-0.7 3.6-2.5 0.5 2.9-3.7 5.5-0.5 0.4-2.5-1.5-4.5 0.5-0.5 1-1-2.4-0.7-4-2.5-1.8 0.5 0 1.5-12.1 1.4-4-6.5-0.8-2.4-3-1.5 1.2 1.6-0.5 3.5-2.7-0.7-6.5-1 0.4-2.9-1.5-5-7.6 2.5-1.5-4 1.4 1.7 2.5 0 1.2-3.4 2-7 1.3 5.3 4.5 2 3.8 1.7 3 5 1.8 1.6 2.5 4 1.5-0.7 3.5-0.5-0.5-0.5-1-1 1.7-1.1 3 0.5-1.6 1.7 0 3 1.6-3.7 4-7-2-1.1-1.5-3 2.7 3.2 4.5 0-1-5.3-5.5-3-0.8-0.8-1.5-1.5 4.2-0.7 3-4 1-1 2-2-1.4-3-5-6 0.7-0.6 1-1.5-5.4-7.9-12.5-2-1-1-2-2-4.4 3.1-0.5 6.5-1.7 0.4-3 1.5 3.1 3.2 7 1 1.3 2.5 4 3.5-2 2.5 0 5-0.8 0.8-1.5 1.5-2.5-1.4-5.5-1 0.2-1.6-0.5-3-3.1 3.8-6 0-2.5 2.8-4.5 6 0.3 1 0.5 2 0.5-1.5 1-3 2.6 3.6 0 7-1.8-4.5-6-2-1-1-2-2-6.2 8-12.5-1 2.3-2.5-1-3.5 1.4-0.6 2.5-1.5 2.2 1.1 0.5 2.5 1.4 0.6 2.5 1.5 0.5-1.9 1.5-3.5-0.9-1.8-2-3.5-1.8 0.5 0 1.5-2.9 0.4-5.5 1.5-0.9 2.4-2.5 4.5 1 1.7 0.5 3.5-1.2-2.3-3.5-3.5 1.4-0.6 2-2-1.7-3.3-3-5.5 9.5-0.5 0.5-4-2.1 1.6-4.5 0.5 0.5-0.5 1-1-4.7-4.3-2 3-1.2 1.8-3 3 2-0.2 3.5 0.5 1.8-1.6 1.5-4 2.1-0.2 4 0.5-2.2 4.7-7.5 8.5-0.5-2-1-4-0.4 1.7-1.5 3-4.6-1.9-1-4.5-4.2-0.1-7 3.5-0.6-1.1-0.5-3-3.1 5-6.5-1-1.6 4.1-6 4.5 1.9 1.9-0.5 3.5-2.2-1.1-0.5-2.5-2.7-2.3-5.5-0.5-2.4-3.7-4.5 0.5 1.6 1.1 2 3-2.2 2.2-4.5 4.5 1.5-3.2 1.5-6.5-2.4-0.1-3.5 2.5-1-3.2 1-6 0.5 0.5 1 1 1-2 0-4-1.5 1.5-3 3-2.4-4.1-3.5 0.5 2 3.1-2 4 1 0.5 2 1-4.3 5.8-3 12.5-20.1-0.3-40-2.5-18.6 20.6-32.5 44.5-6.1 5.5-11 12 2.1-12.8 6-25-15.5 17.3-32.5 33-2.8 0.5-4.5 3-0.3-0.5-0.5-1 5-13.1 9.5-26-15.2 13.7-33 24-0.3-0.5-0.5-1 8.5-15.5 17.5-30-10.6 8.7-22.5 15.5-8.9 5.7-19 7 12.4-16.4 27-31-10.5 4-21 9-10.7 4.4-22 5 14.6-13.1 30-25-11.2 3.4-23 5.5-7.2-1.2-15-1.5 4.4-2.4 8-5.5 12.6-9.1 26-17.5-15.4 0.9-31 0-3.7-0.4-7-2 23.3-6.6 46-15-19.5 0.4-37-8 26.6-3.5 53-8-9.6-0.6-18-4.5-1.6-2.3-6-3.5 16.1-0.2 30-1.5 0.2-0.9 1-1.5-4.4-0.4-8-2.5 0.7 0.1 1-0.5-2-1-4-2 12.5-0.1 25 0.5 10.1 0 20-1.5-1.4-0.7-3-0.5 26.3-4.4 49-19-5.2-1.3-9-5 7.8-3.7 16-6.5-16.9-1.2-33-6 13.3-5.3 27-10-13.5-0.5-27-1-8.9-1.3-17-5 14.2-5.9 29-10-14.5-0.5-29-2-11-1.1-21-5.5 17.1-4.3 34-9.5-13.8-0.3-27-2.5 1.6 0.2 3-0.5-17.6-1.7-33-10 1-0.5 2-1 8-0.5 16-1-4-0.7-8-0.5 19-1.2 38-5.5-22.9-1.6-45-8-20.7-5.4-36-20 1.5-0.3 3-0.5 26.3 6.2 53 2.5-27.4-7.2-52-21-19.4-11.9-31.5-30.5 14.7 8.2 30.5 14.5 39.6 14.5 81 23 51.5 9.5 103 19 32.7 5.4 61 22 11 9.5 4.5 22.5-10.9 10.9-22 22-2.9 9 5.5 12.5 14.1 1 27-5 9.6-5.3 20-9 22.9-6.4 38.5 11.5 3.8 8.4 11.5 13.5 14.4 6.3 29 12-14.5-0.5-29 0-21.2 3.8-42 9.5z"/><path fill-rule="evenodd" class="m" d="m119.5 189.5q1.6-0.2 3 0.5-9.9 1.5-20 1.5-12.5-0.6-25-0.5 2 1 4 2-0.3 0.6-1 0.5-19.6-7.2 0-4.5 19.5 0.8 39 0.5z"/><path fill-rule="evenodd" class="n" d="m91.5 94.5q4-0.2 8 0.5-8 0.5-16 1-1 0.5-2 1 15.4 8.3 33 10-1.4 0.7-3 0.5-18.6-1.1-34-11.5 6.8-2.1 14-1.5z"/><path fill-rule="evenodd" class="o" d="m162.5 554.5q-0.4 3.4 0 6 2-2.3 1-4.5 1.6-0.7 3 0.5-0.7-2.2 2.5-3 0.8 0.3 1.5 0.5-0.8 2.1-1 4 2.5 0.9 5 1.5-39.8 47.3-99 29.5-31.8-15.4-37.5-50.5-5.3-37 20.5-63.5 23.5-17.9 50-5 16.4 13.1 16.5 34.5 11.4-35.2-17.5-57.5-45-19.8-77.5 17.5-33.5 46.3-13 100 18.7 35.7 57.5 47.5 69.4 15.5 119.5-34.5 25.1-29.2 32.5-67 0.1 5.2 2 11-0.3 3.2-3 5 0.3 0.9 1 1.5-2.6 0.8-4 3-2.3 5.6-3 11.5 4.6-0.1 1 1.5 1.8 1.4 2.5 3.5 2.5-1.3 0.5 1.5 1.5 3 3 0-0.8-2.1-1-4 0.8-3.2 3-1.5 1.6-3.7 2.5 0 0.6-2.1 1.5-4-1.5 0.3-3-1.5 2-1.5 0-3 1.4-0.9 2.5 0.5 2.3-3.3 5.5-2-25.7 68.9-97 88.5-15.1 3.4-30 4.5-3.5 0-7 0-48.9-1.6-82.5-37-16.9-21.3-21.5-48 0-15 0-30 6-39.3 36-65.5 30.8-21.8 67-11 43.2 20.5 32.5 67.5-7.7 27.2-34.5 35.5-14.8 2.5-24.5-8.5-2.1-6 4-7 17.8 11.7 31-5 9.6-18.6-2-36-27.9-19.9-51 6-24.9 39 0 78 24.8 26.3 60.5 18.5 27.5-6.8 44-29.5z"/><path fill-rule="evenodd" class="p" d="m613.5 576.5q0.2 1.1-0.5 2-1.4-3.9-2-8-0.8-47-0.5-94-3 0-6 0 0.5 50.3-1 100-1.5-50.9-1-102 5 0 10 0-0.4 51 1 102z"/><path fill-rule="evenodd" class="q" d="m544.5 463.5q-1.5 0-3 0 0.5 59.8-1 119 0-60 0-120 2.4-0.4 4 1z"/><path fill-rule="evenodd" class="r" d="m614.5 589.5q1.5 3.2 1 7-3.8 0.5-7-1 3 0 6 0 0-3 0-6z"/></svg>